<svg width="150" height="18" viewBox="0 0 150 18" fill="none" xmlns="http://www.w3.org/2000/svg">
<path d="M1.127 16.905C0.851 16.905 0.621 16.813 0.437 16.629C0.253 16.445 0.161 16.215 0.161 15.939C0.161 15.663 0.253 15.433 0.437 15.249C0.621 15.0497 0.851 14.95 1.127 14.95H3.864V3.28903L1.518 4.43903C1.30333 4.53103 1.127 4.57703 0.989 4.57703C0.697667 4.57703 0.46 4.48503 0.276 4.30103C0.0919999 4.11703 -1.04308e-07 3.87936 -1.04308e-07 3.58803C-1.04308e-07 3.15869 0.199333 2.84436 0.598 2.64503L3.726 1.01203C3.94067 0.904695 4.15533 0.851029 4.37 0.851029H4.853C5.15967 0.851029 5.42033 0.958362 5.635 1.17303C5.84967 1.3877 5.957 1.64836 5.957 1.95503V14.95H8.234C8.51 14.95 8.74 15.0497 8.924 15.249C9.12333 15.433 9.223 15.663 9.223 15.939C9.223 16.215 9.12333 16.445 8.924 16.629C8.74 16.813 8.51 16.905 8.234 16.905H1.127ZM18.7204 17.135C16.6964 17.135 15.1477 16.3914 14.0744 14.904C13.0164 13.4167 12.4874 11.408 12.4874 8.87803C12.4874 6.34803 13.0164 4.33936 14.0744 2.85203C15.1477 1.3647 16.6964 0.621029 18.7204 0.621029C20.729 0.621029 22.27 1.3647 23.3434 2.85203C24.4167 4.33936 24.9534 6.34803 24.9534 8.87803C24.9534 11.408 24.4167 13.4167 23.3434 14.904C22.27 16.3914 20.729 17.135 18.7204 17.135ZM18.7204 15.203C20.0544 15.203 21.074 14.6434 21.7794 13.524C22.5 12.4047 22.8604 10.856 22.8604 8.87803C22.8604 6.91536 22.5 5.37436 21.7794 4.25503C21.074 3.1357 20.0544 2.57603 18.7204 2.57603C17.3864 2.57603 16.359 3.1357 15.6384 4.25503C14.933 5.37436 14.5804 6.91536 14.5804 8.87803C14.5804 10.856 14.933 12.4047 15.6384 13.524C16.359 14.6434 17.3864 15.203 18.7204 15.203ZM30.6328 8.69403C29.4521 8.69403 28.5398 8.3107 27.8958 7.54403C27.2518 6.76203 26.9298 5.77303 26.9298 4.57703C26.9298 3.38103 27.2518 2.3997 27.8958 1.63303C28.5398 0.851029 29.4521 0.460029 30.6328 0.460029C31.8134 0.460029 32.7258 0.851029 33.3698 1.63303C34.0138 2.3997 34.3358 3.38103 34.3358 4.57703C34.3358 5.77303 34.0138 6.76203 33.3698 7.54403C32.7258 8.3107 31.8134 8.69403 30.6328 8.69403ZM30.6328 17.135C30.4334 17.135 30.2571 17.0584 30.1038 16.905C29.9504 16.767 29.8738 16.5907 29.8738 16.376C29.8738 16.238 29.9121 16.1077 29.9888 15.985L39.3498 1.01203C39.5031 0.766695 39.7178 0.644029 39.9938 0.644029C40.2238 0.644029 40.4078 0.705362 40.5458 0.828028C40.6991 0.950695 40.7758 1.11936 40.7758 1.33403C40.7758 1.5027 40.7221 1.67136 40.6148 1.84003L31.3228 16.721C31.2461 16.8437 31.1464 16.9434 31.0238 17.02C30.9011 17.0967 30.7708 17.135 30.6328 17.135ZM30.6328 7.19903C31.2921 7.19903 31.8058 6.9537 32.1738 6.46303C32.5418 5.97236 32.7258 5.3437 32.7258 4.57703C32.7258 3.81036 32.5418 3.1817 32.1738 2.69103C31.8058 2.20036 31.2921 1.95503 30.6328 1.95503C29.9734 1.95503 29.4598 2.20036 29.0918 2.69103C28.7238 3.1817 28.5398 3.81036 28.5398 4.57703C28.5398 5.3437 28.7238 5.97236 29.0918 6.46303C29.4598 6.9537 29.9734 7.19903 30.6328 7.19903ZM39.9708 17.319C38.7901 17.319 37.8778 16.9357 37.2338 16.169C36.5898 15.387 36.2678 14.398 36.2678 13.202C36.2678 12.006 36.5898 11.0247 37.2338 10.258C37.8778 9.47603 38.7901 9.08503 39.9708 9.08503C41.1514 9.08503 42.0638 9.47603 42.7078 10.258C43.3518 11.0247 43.6738 12.006 43.6738 13.202C43.6738 14.398 43.3518 15.387 42.7078 16.169C42.0638 16.9357 41.1514 17.319 39.9708 17.319ZM39.9708 15.824C40.6301 15.824 41.1438 15.5787 41.5118 15.088C41.8798 14.5974 42.0638 13.9687 42.0638 13.202C42.0638 12.4354 41.8798 11.8067 41.5118 11.316C41.1438 10.8254 40.6301 10.58 39.9708 10.58C39.3114 10.58 38.7978 10.8254 38.4298 11.316C38.0618 11.8067 37.8778 12.4354 37.8778 13.202C37.8778 13.9687 38.0618 14.5974 38.4298 15.088C38.7978 15.5787 39.3114 15.824 39.9708 15.824ZM57.3178 17.135C56.3671 17.135 55.4625 16.8974 54.6038 16.422C53.7605 15.9314 53.0705 15.226 52.5338 14.306C52.0125 13.3707 51.7518 12.282 51.7518 11.04C51.7518 9.79803 52.0125 8.71703 52.5338 7.79703C53.0705 6.8617 53.7605 6.15636 54.6038 5.68103C55.4625 5.19036 56.3671 4.94503 57.3178 4.94503C58.8205 4.94503 60.1315 5.5277 61.2508 6.69303V1.05803C61.2508 0.751362 61.3505 0.498361 61.5498 0.299028C61.7645 0.0996953 62.0175 2.89679e-05 62.3088 2.89679e-05C62.6001 2.89679e-05 62.8455 0.107362 63.0448 0.322029C63.2441 0.521362 63.3438 0.766696 63.3438 1.05803V15.985C63.3438 16.2764 63.2441 16.5217 63.0448 16.721C62.8455 16.9204 62.6001 17.02 62.3088 17.02C62.0175 17.02 61.7645 16.9204 61.5498 16.721C61.3505 16.5217 61.2508 16.2764 61.2508 15.985V15.387C60.1315 16.5524 58.8205 17.135 57.3178 17.135ZM57.6168 15.18C58.3221 15.18 58.9815 15.0267 59.5948 14.72C60.2235 14.398 60.7755 13.9764 61.2508 13.455V8.62503C60.7755 8.1037 60.2235 7.6897 59.5948 7.38303C58.9815 7.06103 58.3221 6.90003 57.6168 6.90003C56.4821 6.90003 55.5698 7.26036 54.8798 7.98103C54.1898 8.7017 53.8448 9.72136 53.8448 11.04C53.8448 12.3587 54.1898 13.3784 54.8798 14.099C55.5698 14.8197 56.4821 15.18 57.6168 15.18ZM67.9636 2.78303C67.6416 2.78303 67.3656 2.66803 67.1356 2.43803C66.9056 2.20803 66.7906 1.93203 66.7906 1.61003V1.51803C66.7906 1.19603 66.9056 0.920028 67.1356 0.690028C67.3656 0.460029 67.6416 0.345029 67.9636 0.345029H68.1016C68.4236 0.345029 68.6996 0.460029 68.9296 0.690028C69.1596 0.920028 69.2746 1.19603 69.2746 1.51803V1.61003C69.2746 1.93203 69.1596 2.20803 68.9296 2.43803C68.6996 2.66803 68.4236 2.78303 68.1016 2.78303H67.9636ZM68.0096 17.02C67.7182 17.02 67.4729 16.9204 67.2736 16.721C67.0742 16.5217 66.9746 16.2764 66.9746 15.985V6.11803C66.9746 5.8267 67.0742 5.58136 67.2736 5.38203C67.4729 5.16736 67.7182 5.06003 68.0096 5.06003C68.3162 5.06003 68.5692 5.1597 68.7686 5.35903C68.9679 5.55836 69.0676 5.81136 69.0676 6.11803V15.985C69.0676 16.2764 68.9602 16.5217 68.7456 16.721C68.5462 16.9204 68.3009 17.02 68.0096 17.02ZM76.4971 17.135C74.9638 17.135 73.5684 16.79 72.3111 16.1C72.0504 15.916 71.9201 15.663 71.9201 15.341C71.9201 15.0957 72.0044 14.881 72.1731 14.697C72.3418 14.513 72.5564 14.421 72.8171 14.421C72.9551 14.421 73.0931 14.4517 73.2311 14.513C73.7218 14.7277 74.2124 14.8964 74.7031 15.019C75.1938 15.1417 75.7458 15.203 76.3591 15.203C78.0611 15.203 78.9121 14.6587 78.9121 13.57C78.9121 13.2174 78.7128 12.949 78.3141 12.765C77.9308 12.581 77.2944 12.374 76.4051 12.144C75.5004 11.9294 74.7491 11.707 74.1511 11.477C73.5684 11.247 73.0624 10.902 72.6331 10.442C72.2191 9.9667 72.0121 9.3457 72.0121 8.57903C72.0121 7.5057 72.3954 6.6317 73.1621 5.95703C73.9441 5.28236 75.0558 4.94503 76.4971 4.94503C77.6778 4.94503 78.7894 5.1367 79.8321 5.52003C80.0468 5.58136 80.2078 5.69636 80.3151 5.86503C80.4378 6.0337 80.4991 6.21003 80.4991 6.39403C80.4991 6.63936 80.4071 6.85403 80.2231 7.03803C80.0544 7.22203 79.8398 7.31403 79.5791 7.31403C79.5024 7.31403 79.4028 7.2987 79.2801 7.26803C78.3908 6.99203 77.5168 6.85403 76.6581 6.85403C75.8301 6.85403 75.1784 7.00736 74.7031 7.31403C74.2431 7.60536 74.0131 7.9887 74.0131 8.46403C74.0131 8.92403 74.2278 9.26136 74.6571 9.47603C75.0864 9.6907 75.7534 9.8977 76.6581 10.097C77.5628 10.327 78.2988 10.557 78.8661 10.787C79.4334 11.0017 79.9164 11.3467 80.3151 11.822C80.7291 12.2974 80.9361 12.9337 80.9361 13.731C80.9361 14.7124 80.5451 15.525 79.7631 16.169C78.9964 16.813 77.9078 17.135 76.4971 17.135ZM89.1809 17.135C88.0769 17.135 87.0572 16.8897 86.1219 16.399C85.1865 15.9084 84.4352 15.203 83.8679 14.283C83.3159 13.363 83.0399 12.282 83.0399 11.04C83.0399 9.79803 83.3159 8.71703 83.8679 7.79703C84.4352 6.87703 85.1865 6.1717 86.1219 5.68103C87.0572 5.19036 88.0769 4.94503 89.1809 4.94503C89.9935 4.94503 90.6912 5.05236 91.2739 5.26703C91.8719 5.46636 92.4239 5.72703 92.9299 6.04903C93.2365 6.24836 93.3899 6.5167 93.3899 6.85403C93.3899 7.08403 93.2979 7.2987 93.1139 7.49803C92.9452 7.68203 92.7459 7.77403 92.5159 7.77403C92.3472 7.77403 92.1785 7.72803 92.0099 7.63603C91.5039 7.37536 91.0669 7.19136 90.6989 7.08403C90.3462 6.96136 89.9015 6.90003 89.3649 6.90003C88.0462 6.90003 87.0112 7.28336 86.2599 8.05003C85.5085 8.80136 85.1329 9.79803 85.1329 11.04C85.1329 12.282 85.5085 13.2864 86.2599 14.053C87.0112 14.8044 88.0462 15.18 89.3649 15.18C89.9015 15.18 90.3462 15.1264 90.6989 15.019C91.0669 14.8964 91.5039 14.7047 92.0099 14.444C92.1785 14.352 92.3472 14.306 92.5159 14.306C92.7459 14.306 92.9452 14.4057 93.1139 14.605C93.2979 14.789 93.3899 14.996 93.3899 15.226C93.3899 15.5634 93.2365 15.8317 92.9299 16.031C92.4239 16.353 91.8719 16.6214 91.2739 16.836C90.6912 17.0354 89.9935 17.135 89.1809 17.135ZM101.102 17.135C99.921 17.135 98.886 16.882 97.9967 16.376C97.1074 15.87 96.4174 15.157 95.9267 14.237C95.4514 13.3017 95.2137 12.236 95.2137 11.04C95.2137 9.84403 95.4514 8.78603 95.9267 7.86603C96.4174 6.9307 97.1074 6.21003 97.9967 5.70403C98.886 5.19803 99.921 4.94503 101.102 4.94503C102.267 4.94503 103.294 5.19803 104.184 5.70403C105.073 6.21003 105.763 6.9307 106.254 7.86603C106.744 8.78603 106.99 9.84403 106.99 11.04C106.99 12.236 106.744 13.3017 106.254 14.237C105.763 15.157 105.073 15.87 104.184 16.376C103.294 16.882 102.267 17.135 101.102 17.135ZM101.102 15.226C101.73 15.226 102.328 15.0804 102.896 14.789C103.478 14.4977 103.954 14.0377 104.322 13.409C104.705 12.7804 104.897 11.983 104.897 11.017C104.897 10.0664 104.705 9.2767 104.322 8.64803C103.954 8.01936 103.478 7.56703 102.896 7.29103C102.328 6.9997 101.73 6.85403 101.102 6.85403C100.458 6.85403 99.8444 6.9997 99.2617 7.29103C98.6944 7.56703 98.2267 8.01936 97.8587 8.64803C97.4907 9.2767 97.3067 10.0664 97.3067 11.017C97.3067 11.983 97.4907 12.7804 97.8587 13.409C98.2267 14.0377 98.6944 14.4977 99.2617 14.789C99.8444 15.0804 100.458 15.226 101.102 15.226ZM113.922 17.135C113.079 17.135 112.343 16.9357 111.714 16.537C111.101 16.1384 110.625 15.594 110.288 14.904C109.966 14.214 109.805 13.455 109.805 12.627V6.09503C109.805 5.8037 109.905 5.55836 110.104 5.35903C110.319 5.1597 110.572 5.06003 110.863 5.06003C111.154 5.06003 111.4 5.1597 111.599 5.35903C111.798 5.55836 111.898 5.8037 111.898 6.09503V12.397C111.898 14.2677 112.741 15.203 114.428 15.203C115.195 15.203 115.877 15.0037 116.475 14.605C117.088 14.2064 117.663 13.6697 118.2 12.995V6.09503C118.2 5.8037 118.3 5.55836 118.499 5.35903C118.714 5.1597 118.967 5.06003 119.258 5.06003C119.549 5.06003 119.795 5.1597 119.994 5.35903C120.193 5.55836 120.293 5.8037 120.293 6.09503V15.962C120.293 16.2534 120.193 16.5064 119.994 16.721C119.795 16.9204 119.549 17.02 119.258 17.02C118.967 17.02 118.714 16.9204 118.499 16.721C118.3 16.5064 118.2 16.2534 118.2 15.962V15.019C117.617 15.663 116.989 16.1767 116.314 16.56C115.639 16.9434 114.842 17.135 113.922 17.135ZM124.97 17.02C124.679 17.02 124.434 16.9204 124.234 16.721C124.035 16.5217 123.935 16.2764 123.935 15.985V6.11803C123.935 5.8267 124.035 5.58136 124.234 5.38203C124.434 5.16736 124.679 5.06003 124.97 5.06003C125.262 5.06003 125.507 5.16736 125.706 5.38203C125.921 5.58136 126.028 5.8267 126.028 6.11803V7.06103C126.611 6.41703 127.24 5.90336 127.914 5.52003C128.589 5.1367 129.386 4.94503 130.306 4.94503C131.15 4.94503 131.878 5.14436 132.492 5.54303C133.12 5.9417 133.596 6.48603 133.918 7.17603C134.255 7.86603 134.424 8.62503 134.424 9.45303V15.985C134.424 16.2764 134.316 16.5217 134.102 16.721C133.902 16.9204 133.657 17.02 133.366 17.02C133.074 17.02 132.829 16.9204 132.63 16.721C132.43 16.5217 132.331 16.2764 132.331 15.985V9.68303C132.331 7.81236 131.487 6.87703 129.801 6.87703C129.034 6.87703 128.344 7.07636 127.731 7.47503C127.133 7.8737 126.565 8.41036 126.028 9.08503V15.985C126.028 16.2764 125.921 16.5217 125.706 16.721C125.507 16.9204 125.262 17.02 124.97 17.02ZM141.73 17.135C139.491 17.135 138.372 16.123 138.372 14.099V6.96903H136.739C136.616 6.96903 136.509 6.9307 136.417 6.85403C136.34 6.76203 136.302 6.6547 136.302 6.53203C136.302 6.3787 136.371 6.24836 136.509 6.14103L139.637 3.08203C139.775 2.94403 139.905 2.87503 140.028 2.87503C140.15 2.87503 140.25 2.92103 140.327 3.01303C140.419 3.10503 140.465 3.21236 140.465 3.33503V5.17503H143.064C143.324 5.17503 143.539 5.25936 143.708 5.42803C143.876 5.5967 143.961 5.81136 143.961 6.07203C143.961 6.31736 143.876 6.53203 143.708 6.71603C143.539 6.8847 143.324 6.96903 143.064 6.96903H140.465V13.915C140.465 14.513 140.603 14.8964 140.879 15.065C141.17 15.2184 141.53 15.295 141.96 15.295C142.266 15.295 142.573 15.249 142.88 15.157C142.941 15.1417 143.002 15.1264 143.064 15.111C143.14 15.0957 143.232 15.088 143.34 15.088C143.554 15.088 143.746 15.1724 143.915 15.341C144.083 15.4944 144.168 15.686 144.168 15.916C144.168 16.2687 143.991 16.537 143.639 16.721C143.041 16.997 142.404 17.135 141.73 17.135ZM147.89 12.466C147.66 12.466 147.476 12.4047 147.338 12.282C147.2 12.1594 147.123 11.9984 147.108 11.799L146.694 4.20903V1.93203C146.694 1.5947 146.809 1.31103 147.039 1.08103C147.269 0.851029 147.552 0.736029 147.89 0.736029C148.227 0.736029 148.503 0.851029 148.718 1.08103C148.948 1.31103 149.063 1.5947 149.063 1.93203V4.20903L148.649 11.799C148.633 11.9984 148.557 12.1594 148.419 12.282C148.296 12.4047 148.12 12.466 147.89 12.466ZM147.89 16.997C147.522 16.997 147.2 16.8667 146.924 16.606C146.663 16.33 146.533 16.0004 146.533 15.617C146.533 15.249 146.663 14.9347 146.924 14.674C147.2 14.398 147.522 14.26 147.89 14.26C148.273 14.26 148.595 14.398 148.856 14.674C149.132 14.9347 149.27 15.249 149.27 15.617C149.27 16.0004 149.132 16.33 148.856 16.606C148.595 16.8667 148.273 16.997 147.89 16.997Z" fill="#A5C926"/>
</svg>
