<svg width="83" height="20" viewBox="0 0 83 20" fill="none" xmlns="http://www.w3.org/2000/svg">
<g opacity="0.3" clip-path="url(#clip0_1_162)">
<path fill-rule="evenodd" clip-rule="evenodd" d="M0.231398 14.7542L3.1655 12.5065C4.72381 14.5407 6.3786 15.478 8.22248 15.4779C10.0562 15.4778 11.6653 14.551 13.1536 12.5327L16.1284 14.7262C13.9827 17.6362 11.3129 19.1738 8.22273 19.174C5.14276 19.1742 2.4481 17.6478 0.231398 14.7542Z" fill="white"/>
<path fill-rule="evenodd" clip-rule="evenodd" d="M8.2124 4.9856L2.99021 9.4861L0.577331 6.68629L8.22245 0.0976924L15.809 6.6904L13.3846 9.48027L8.2124 4.9856Z" fill="white"/>
<path d="M36.1571 3.895L33.2003 3.8952L33.2011 16.2155L36.158 16.2153L36.1571 3.895Z" fill="white"/>
<path fill-rule="evenodd" clip-rule="evenodd" d="M27.2253 16.2702C25.4822 16.2703 24.0297 15.7055 22.8514 14.5758C21.6731 13.43 21.092 11.9613 21.0919 10.1698C21.0917 8.3622 21.6888 6.87732 22.8669 5.71521C24.0612 4.53693 25.5137 3.95582 27.2406 3.9557C29.371 3.95556 31.2594 4.87538 32.3569 6.31174L30.4365 8.32931C29.5164 7.34485 28.5158 6.8446 27.4345 6.84468C26.5145 6.84474 25.756 7.15143 25.1266 7.78092C24.5133 8.41041 24.2068 9.20127 24.2068 10.1535C24.2069 11.0734 24.5136 11.8481 25.1269 12.4775C25.7564 13.0908 26.515 13.3974 27.4188 13.3973C28.597 13.3972 29.6298 12.8807 30.4851 11.8639L32.4867 13.7843C31.9381 14.5106 31.1955 15.1078 30.2755 15.576C29.3558 16.0441 28.3389 16.2701 27.2253 16.2702Z" fill="white"/>
<path fill-rule="evenodd" clip-rule="evenodd" d="M40.5922 4.88028C40.5923 5.76486 39.8755 6.48198 38.9909 6.48204C38.1062 6.4821 37.3891 5.76507 37.389 4.88049C37.389 3.99594 38.106 3.27882 38.9907 3.27876C39.8753 3.2787 40.5922 3.99573 40.5922 4.88028ZM40.4692 7.22113L37.5124 7.22133L37.513 16.2151L40.4698 16.2149L40.4692 7.22113Z" fill="white"/>
<path fill-rule="evenodd" clip-rule="evenodd" d="M46.1854 16.285C44.7814 16.2851 43.6515 15.8495 42.7639 14.978C41.8922 14.1065 41.4562 12.9929 41.4561 11.621C41.456 10.2492 41.8919 9.13551 42.7794 8.26394C43.6671 7.39235 44.8129 6.9565 46.2332 6.95641C48.0894 6.95628 49.7194 7.85997 50.478 9.55458L48.2024 10.7491C47.7505 9.99054 47.1212 9.60322 46.298 9.60327C45.7009 9.60331 45.2166 9.79703 44.8294 10.1844C44.4581 10.5718 44.2645 11.056 44.2645 11.6209C44.2646 12.799 45.12 13.6705 46.2661 13.6704C47.089 13.6704 47.8475 13.2184 48.1704 12.5244L50.4461 13.88C49.6714 15.3649 48.0738 16.2849 46.1854 16.285Z" fill="white"/>
<path fill-rule="evenodd" clip-rule="evenodd" d="M54.1449 3.89378L51.1881 3.89398L51.1889 16.2142L54.1457 16.214L54.1455 13.0776L54.4919 12.7545L57.195 16.2138L60.6347 16.2136L56.4816 10.8988L60.4263 7.2198L56.8132 7.22004L54.1453 9.70845L54.1449 3.89378Z" fill="white"/>
<path fill-rule="evenodd" clip-rule="evenodd" d="M61.1677 11.558L61.1672 3.89331L64.2475 3.8931L64.248 11.3861C64.2481 12.7257 65.0287 13.3713 66.1577 13.3712C67.2702 13.3711 68.0672 12.6932 68.0671 11.3859L68.0666 3.89285L71.1466 3.89264L71.1471 11.5573C71.1474 15.0757 68.6773 16.3993 66.1579 16.3995C63.6547 16.3997 61.168 15.0764 61.1677 11.558Z" fill="white"/>
<path fill-rule="evenodd" clip-rule="evenodd" d="M77.8005 16.4589C80.182 16.4587 82.1126 14.3625 82.1124 11.7769C82.1122 9.19123 80.1813 7.0953 77.7999 7.09546C76.8292 7.09553 75.9335 7.44385 75.2127 8.03158L75.2127 7.21885L72.379 7.21904L72.3799 19.9089L75.2135 19.9087L75.2132 15.5231C75.9341 16.1107 76.8298 16.4589 77.8005 16.4589ZM75.213 11.7821L75.213 11.7725C75.2155 10.618 76.1244 9.68282 77.2456 9.68274C78.3685 9.68267 79.2787 10.6203 79.2788 11.777C79.2788 12.9338 78.3688 13.8715 77.2459 13.8716C76.1247 13.8717 75.2157 12.9366 75.213 11.7821Z" fill="white"/>
</g>
<defs>
<clipPath id="clip0_1_162">
<rect width="82.3188" height="20" fill="white" transform="translate(0 0.0055542)"/>
</clipPath>
</defs>
</svg>
