<svg width="48" height="15" viewBox="0 0 48 15" fill="none" xmlns="http://www.w3.org/2000/svg">
<path d="M19.3672 0L16.9891 14.7987H20.7902L23.1669 0H19.3672ZM30.8327 6.02816C29.5044 5.37221 28.6901 4.92949 28.6901 4.25859C28.7064 3.6486 29.3787 3.02366 30.8802 3.02366C32.1151 2.99264 33.0228 3.28286 33.7114 3.57162L34.0563 3.72558L34.5731 0.629321C33.8223 0.339102 32.6319 0.0193255 31.1614 0.0193255C27.4078 0.0193255 24.7646 1.97095 24.7482 4.76221C24.7172 6.822 26.6406 7.96501 28.08 8.65068C29.5504 9.35406 30.0509 9.81009 30.0509 10.435C30.0347 11.3945 28.8619 11.8372 27.7677 11.8372C26.2514 11.8372 25.437 11.6092 24.2006 11.0746L23.7001 10.8466L23.1685 14.0643C24.0614 14.4612 25.7035 14.8106 27.4079 14.8284C31.3971 14.8284 33.9928 12.9064 34.0255 9.93157C34.0385 8.29972 33.0242 7.04985 30.8327 6.02816ZM44.3179 0.0457979H41.3771C40.4708 0.0457979 39.7822 0.306459 39.3899 1.23639L33.7437 14.7987H37.7328L38.8315 11.8624H43.2946L43.8646 14.8106H47.383L44.3179 0.0457979ZM39.9378 8.89916C40.0148 8.90663 41.469 4.10593 41.469 4.10593L42.6269 8.89916C42.6269 8.89916 40.6886 8.89916 39.9378 8.89916ZM13.813 0L10.0889 10.0544L9.68317 8.07154C8.99457 5.78374 6.83572 3.29764 4.42644 2.06271L7.83662 14.7839H11.8584L17.8348 0.00162316H13.813V0Z" fill="#2394BC"/>
<path d="M8.43143 1.90933C8.14122 0.780934 7.21567 0.0199026 5.95865 0.00366211H0.0607396L0 0.277477C4.60078 1.41172 8.46245 4.90181 9.71525 8.18467L8.43143 1.90933Z" fill="#EFC75E"/>
</svg>
