<svg width="32" height="6" viewBox="0 0 32 6" fill="none" xmlns="http://www.w3.org/2000/svg">
<path d="M11.1172 4.45898C11.1172 5.10367 11.4933 5.37229 11.9768 5.37229C12.3528 5.37229 12.6752 5.26484 12.7826 5.21112L12.9438 4.29781C12.8901 4.29781 12.7826 4.35153 12.6752 4.35153C12.2991 4.35153 12.2454 4.13664 12.2991 4.02919L12.6215 2.14885H13.2124L13.3736 1.12809H12.8364L12.9438 0.483398" fill="#DCE5E5"/>
<path d="M13.6953 3.49177C13.6953 4.99604 14.1788 5.37211 15.0384 5.37211C15.8443 5.37211 16.1666 5.21094 16.1666 5.21094L16.3815 4.19018C16.3815 4.19018 15.7906 4.4588 15.2533 4.4588C14.0714 4.4588 14.2863 3.59921 14.2863 3.59921H16.489C16.489 3.59921 16.6501 2.9008 16.6501 2.63218C16.6501 1.93377 16.2741 1.07418 15.0921 1.07418C13.9639 0.966734 13.6953 2.14866 13.6953 3.49177ZM15.0384 1.93377C15.6294 1.93377 15.7368 2.63218 15.7368 2.68591H14.34C14.34 2.63218 14.4474 1.93377 15.0384 1.93377Z" fill="#DCE5E5"/>
<path d="M21.8668 5.21124L22.0817 4.02931C22.0817 4.02931 21.5445 4.29793 21.1684 4.29793C20.4163 4.29793 20.0939 3.70696 20.0939 3.06227C20.0939 1.77289 20.7386 1.07448 21.4907 1.07448C22.028 1.07448 22.4578 1.39683 22.4578 1.39683L22.6189 0.268621C22.6189 0.268621 21.9743 0 21.3833 0C20.1476 0 19.4492 1.07448 19.4492 3.116C19.4492 4.4591 19.5567 5.37241 20.846 5.37241C21.2758 5.37241 21.8668 5.21124 21.8668 5.21124Z" fill="#DCE5E5"/>
<path d="M5.42322 2.1487C5.42322 2.1487 5.90674 1.9338 6.60516 1.9338C6.98122 1.9338 7.30357 1.98753 7.30357 2.30987C7.30357 2.52477 7.24984 2.57849 7.24984 2.57849C7.24984 2.57849 6.9275 2.57849 6.76633 2.57849C5.85302 2.57849 4.83226 2.95456 4.83226 4.19022C4.83226 5.15725 5.47695 5.37215 5.85302 5.37215C6.60516 5.37215 6.9275 4.88863 6.98122 4.88863L6.9275 5.31842H7.89453L8.32433 2.3636C8.32433 1.12794 7.24984 1.07422 6.82005 1.07422L5.42322 2.1487ZM7.62591 3.38436C7.62591 3.54553 6.98122 4.40511 6.33653 4.40511C6.01419 4.40511 5.90674 4.13649 5.90674 3.97532C5.90674 3.7067 6.06791 3.33063 6.87378 3.33063C7.03495 3.38435 7.62591 3.38436 7.62591 3.38436Z" fill="#DCE5E5"/>
<path d="M8.16396 5.21101C8.16396 5.21101 8.4863 5.31846 9.39961 5.31846C9.66823 5.31846 11.0113 5.37219 11.0113 3.92164C11.0113 2.57853 9.72195 2.84715 9.72195 2.30991C9.72195 2.04129 9.93685 1.93384 10.3129 1.93384C10.4741 1.93384 11.0651 1.98757 11.0651 1.98757L11.2262 1.02053C11.2262 1.02053 10.8502 0.913086 10.2055 0.913086C9.39961 0.913086 9.13099 1.23543 9.13099 2.30991C9.13099 3.54557 9.93685 3.43812 9.93685 3.92164C9.93685 4.24398 9.56078 4.2977 9.29216 4.2977" fill="#DCE5E5"/>
<path d="M30.5673 1.55796C30.5673 1.55796 30.1375 1.02072 29.5465 1.02072C28.5795 1.02072 28.2571 2.20265 28.2571 3.59948C28.2571 4.45906 28.1497 5.37237 29.063 5.37237C29.7077 5.37237 30.0837 4.94258 30.0837 4.94258L30.03 5.31865H31.1045L31.9104 0.161133L30.5673 1.55796ZM30.5135 2.95479C30.5135 3.54575 30.03 4.29789 29.439 4.29789C29.063 4.29789 28.8481 3.97554 28.8481 3.4383C28.8481 2.57872 29.2242 2.04148 29.7077 2.04148C30.0837 2.04148 30.5135 2.3101 30.5135 2.95479Z" fill="#DCE5E5"/>
<path d="M1.02076 5.26494L1.66545 1.3968L1.7729 5.26494H2.52503L3.92186 1.3968L3.33089 5.26494H4.4591L5.31869 0.107422H3.97558L2.47131 3.27714L2.41758 0.107422H1.82662L0 5.26494H1.02076Z" fill="#DCE5E5"/>
<path d="M16.5461 5.2647H17.6743C17.9966 3.4918 18.0503 2.04125 18.8025 2.30987C18.9099 1.61146 19.0711 1.34284 19.1785 1.07422C19.1785 1.07422 19.1248 1.07422 18.9636 1.07422C18.4801 1.07422 18.1041 1.71891 18.1041 1.71891L18.2115 1.12794" fill="#DCE5E5"/>
<path d="M22.8881 2.1487C22.8881 2.1487 23.3717 1.9338 24.0701 1.9338C24.4461 1.9338 24.7685 1.98753 24.7685 2.30987C24.7685 2.52477 24.7148 2.57849 24.7148 2.57849C24.7148 2.57849 24.3924 2.57849 24.2312 2.57849C23.3179 2.57849 22.2972 2.95456 22.2972 4.19022C22.2972 5.15725 22.9419 5.37215 23.3179 5.37215C24.0701 5.37215 24.3924 4.88863 24.4461 4.88863L24.3924 5.31842H25.3595L25.7892 2.3636C25.7892 1.12794 24.7148 1.07422 24.285 1.07422L22.8881 2.1487ZM25.0908 3.38436C25.0908 3.54553 24.4461 4.40511 23.8015 4.40511C23.4791 4.40511 23.3717 4.13649 23.3717 3.97532C23.3717 3.7067 23.5328 3.33063 24.3387 3.33063C24.5536 3.38435 25.0908 3.38436 25.0908 3.38436Z" fill="#DCE5E5"/>
<path d="M25.5742 5.2647H26.7024C27.0248 3.4918 27.0785 2.04125 27.8306 2.30987C27.9381 1.61146 28.0993 1.34284 28.2067 1.07422C28.2067 1.07422 28.153 1.07422 27.9918 1.07422C27.5083 1.07422 27.1322 1.71891 27.1322 1.71891L27.2397 1.12794" fill="#DCE5E5"/>
</svg>
