<svg width="11" height="10" viewBox="0 0 11 10" fill="none" xmlns="http://www.w3.org/2000/svg">
<path d="M7.17161 0.00012207H9.70267C10.0542 0.00012207 10.353 0.132713 10.5991 0.397819C10.8452 0.662975 10.9682 0.984924 10.9682 1.36379V4.09103C10.9682 4.46987 10.8452 4.79177 10.5991 5.05687C10.353 5.32195 10.0542 5.45459 9.70267 5.45459H8.22625C8.05054 5.45459 7.9011 5.52091 7.77805 5.65345C7.655 5.78592 7.5935 5.94699 7.5935 6.13648V6.36362C7.5935 6.86555 7.75831 7.29392 8.08784 7.6491C8.4174 8.00411 8.81503 8.18168 9.28089 8.18168H9.70267C9.81699 8.18168 9.91582 8.22678 9.99935 8.31668C10.0828 8.40659 10.1246 8.51316 10.1246 8.63627V9.54547C10.1246 9.66839 10.0828 9.77516 9.99935 9.86508C9.91575 9.95496 9.81701 10.0001 9.70267 10.0001H9.28086C8.82383 10.0001 8.38771 9.90406 7.97244 9.71237C7.55719 9.52065 7.19799 9.26134 6.89478 8.93461C6.59164 8.60786 6.35103 8.22089 6.17309 7.77341C5.99516 7.32596 5.90617 6.85605 5.90617 6.36365V1.36369C5.90617 0.984825 6.02921 0.662901 6.27524 0.397794C6.52127 0.132688 6.82012 0.00012207 7.17161 0.00012207Z" fill="#F6762C"/>
<path d="M0.369215 0.397697C0.61522 0.132591 0.914021 0 1.2656 0H3.79656C4.14814 0 4.44692 0.132591 4.69294 0.397697C4.93895 0.662878 5.06195 0.984802 5.06195 1.36367V4.0909C5.06195 4.46974 4.93895 4.79164 4.69294 5.05675C4.44692 5.32183 4.14811 5.45447 3.79656 5.45447H2.32014C2.14444 5.45447 1.99488 5.52079 1.87186 5.65333C1.74895 5.78587 1.68731 5.94687 1.68731 6.13635V6.3635C1.68731 6.86543 1.85212 7.2938 2.18172 7.64898C2.51125 8.00399 2.90879 8.18156 3.37469 8.18156H3.79656C3.91079 8.18156 4.00971 8.22666 4.09315 8.31656C4.17665 8.40647 4.21846 8.51303 4.21846 8.63615V9.54535C4.21846 9.66826 4.17665 9.77503 4.09315 9.86496C4.00974 9.95484 3.91081 9.99996 3.79656 9.99996H3.37469C2.91772 9.99996 2.48163 9.90394 2.06631 9.71224C1.65113 9.52052 1.29199 9.26121 0.988751 8.93449C0.685539 8.60774 0.444798 8.22066 0.266967 7.77329C0.089066 7.32594 2.38419e-05 6.85593 2.38419e-05 6.36353V1.36357C9.29832e-05 0.984703 0.123026 0.662779 0.369215 0.397697Z" fill="#F6762C"/>
</svg>
